<?xml version="1.0"?>
<svg width="496.158" height="496.158" xmlns="http://www.w3.org/2000/svg" xmlns:svg="http://www.w3.org/2000/svg" enable-background="new 0 0 496.158 496.158" version="1.1" xml:space="preserve">
 <g class="layer">
  <title>Layer 1</title>
  <path d="m496.16,248.09c0,-137.03 -111.07,-248.09 -248.08,-248.09c-137.01,0 -248.08,111.06 -248.08,248.09c0,137 111.07,248.06 248.08,248.06c137.01,0 248.08,-111.06 248.08,-248.06z" fill="#ff0000" id="svg_1"/>
  <g id="svg_2">
   <path d="m315.25,359.56c-1.39,-2.04 -4.05,-2.76 -6.27,-1.71c-24.58,11.64 -52.48,23.94 -57.96,25.02c-0.14,-0.12 -0.36,-0.35 -0.64,-0.74c-0.74,-1 -1.11,-2.32 -1.11,-4.01c0,-13.91 10.5,-56.21 31.2,-125.72c17.45,-58.41 19.47,-70.5 19.47,-74.52c0,-6.2 -2.38,-11.43 -6.87,-15.14c-4.27,-3.52 -10.23,-5.31 -17.72,-5.31c-12.46,0 -26.9,4.73 -44.15,14.47c-16.71,9.43 -35.35,25.41 -55.39,47.48c-1.57,1.73 -1.73,4.32 -0.4,6.23c1.34,1.92 3.83,2.64 5.99,1.77c7.04,-2.88 42.4,-17.36 47.56,-20.6c4.22,-2.65 7.87,-3.99 10.86,-3.99c0.1,0 0.2,0 0.27,0.01c0.04,0.2 0.07,0.5 0.07,0.93c0,3.05 -0.62,6.66 -1.85,10.7c-30.14,97.65 -44.79,157.5 -44.79,183c0,9 2.5,16.24 7.43,21.53c5.03,5.39 11.81,8.12 20.15,8.12c8.89,0 19.71,-3.71 33.08,-11.35c12.94,-7.39 32.68,-23.65 60.36,-49.72c1.8,-1.68 2.1,-4.42 0.71,-6.45z" fill="#FFFFFF" id="svg_3"/>
   <path d="m314.28,76.67c-4.92,-5.04 -11.22,-7.59 -18.73,-7.59c-9.34,0 -17.47,3.69 -24.17,10.97c-6.6,7.16 -9.94,15.94 -9.94,26.11c0,8.03 2.46,14.69 7.32,19.78c4.92,5.18 11.14,7.8 18.48,7.8c8.95,0 17.04,-3.9 24.04,-11.59c6.88,-7.55 10.37,-16.43 10.37,-26.39c0,-7.65 -2.48,-14.08 -7.37,-19.09z" fill="#FFFFFF" id="svg_4"/>
  </g>
  <g id="svg_5"/>
  <g id="svg_6"/>
  <g id="svg_7"/>
  <g id="svg_8"/>
  <g id="svg_9"/>
  <g id="svg_10"/>
  <g id="svg_11"/>
  <g id="svg_12"/>
  <g id="svg_13"/>
  <g id="svg_14"/>
  <g id="svg_15"/>
  <g id="svg_16"/>
  <g id="svg_17"/>
  <g id="svg_18"/>
  <g id="svg_19"/>
 </g>
</svg>