<?xml version="1.0" encoding="UTF-8" standalone="no"?>
<svg
   xmlns:dc="http://purl.org/dc/elements/1.1/"
   xmlns:cc="http://creativecommons.org/ns#"
   xmlns:rdf="http://www.w3.org/1999/02/22-rdf-syntax-ns#"
   xmlns:svg="http://www.w3.org/2000/svg"
   xmlns="http://www.w3.org/2000/svg"
   xmlns:sodipodi="http://sodipodi.sourceforge.net/DTD/sodipodi-0.dtd"
   xmlns:inkscape="http://www.inkscape.org/namespaces/inkscape"
   id="Calque_1"
   data-name="Calque 1"
   viewBox="0 0 130 150"
   version="1.1"
   sodipodi:docname="DL_02_BUT.svg"
   inkscape:export-filename="C:\Users\Accueil\Downloads\Kit_Diplomes_labels_2019_1145719\Diplomes_labels_2019\DL_version1_principale\DL_02_BUT.png"
   inkscape:export-xdpi="1525.9944"
   inkscape:export-ydpi="1525.9944"
   inkscape:version="1.0.1 (3bc2e813f5, 2020-09-07)">
  <metadata
     id="metadata57">
    <rdf:RDF>
      <cc:Work
         rdf:about="">
        <dc:format>image/svg+xml</dc:format>
        <dc:type
           rdf:resource="http://purl.org/dc/dcmitype/StillImage" />
      </cc:Work>
    </rdf:RDF>
  </metadata>
  <sodipodi:namedview
     pagecolor="#ffffff"
     bordercolor="#666666"
     borderopacity="1"
     objecttolerance="10"
     gridtolerance="10"
     guidetolerance="10"
     inkscape:pageopacity="0"
     inkscape:pageshadow="2"
     inkscape:window-width="2736"
     inkscape:window-height="1730"
     id="namedview55"
     showgrid="false"
     inkscape:zoom="9.8"
     inkscape:cx="62.611744"
     inkscape:cy="75.211975"
     inkscape:window-x="-11"
     inkscape:window-y="-11"
     inkscape:window-maximized="1"
     inkscape:current-layer="Calque_1" />
  <defs
     id="defs4">
    <style
       id="style2">.cls-1{fill:#144455;}.cls-2{fill:#3ea2d6;}.cls-3{fill:#fff;}</style>
  </defs>
  <title
     id="title6">Plan de travail 1</title>
  <path
     class="cls-1"
     d="M64.86,149.79,0,112.34V37.45L64.86,0l64.86,37.45v74.9ZM5,109.46,64.86,144l59.86-34.56V40.33L64.86,5.77,5,40.33Z"
     id="path8"
     inkscape:export-xdpi="96"
     inkscape:export-ydpi="96" />
  <polygon
     class="cls-1"
     points="117.3 105.17 64.86 135.45 12.42 105.17 12.42 44.62 64.86 14.34 117.3 44.62 117.3 105.17"
     id="polygon10"
     inkscape:export-xdpi="96"
     inkscape:export-ydpi="96" />
  <path
     class="cls-2"
     d="M64.86,138.34,9.92,106.62V43.18L64.86,11.46,119.8,43.18v63.44ZM14.92,103.73l49.94,28.83,49.94-28.83V46.06L64.86,17.23,14.92,46.06Z"
     id="path12"
     inkscape:export-xdpi="96"
     inkscape:export-ydpi="96" />
  <path
     class="cls-3"
     d="M62.85,52.67h1.86v8.17c0,.79.32,1.19,1,1.19s1-.39,1-1.19V52.67h1.86v8.1a2.85,2.85,0,1,1-5.7,0Z"
     id="path16"
     inkscape:export-xdpi="96"
     inkscape:export-ydpi="96" />
  <path
     class="cls-3"
     d="M71.43,54.29h-1.8V52.67h5.46v1.62h-1.8V63.5H71.43Z"
     id="path18"
     inkscape:export-xdpi="96"
     inkscape:export-ydpi="96" />
  <path
     class="cls-3"
     d="M42.38,71.94c-.15-1.71-.69-2.43-1.6-2.43-1.36,0-2,1.2-2,4.58s.6,4.57,2,4.57c1.09,0,1.72-.75,1.75-2.76H43.7c0,2.4-1.08,3.75-2.92,3.75s-3.14-1.47-3.14-5.56,1.2-5.56,3.14-5.56c1.6,0,2.59,1.11,2.77,3.42Z"
     id="path20"
     inkscape:export-xdpi="96"
     inkscape:export-ydpi="96" />
  <path
     class="cls-3"
     d="M48.2,79.65c-1.83,0-3.06-1.53-3.06-5.56s1.23-5.56,3.06-5.56,3.06,1.53,3.06,5.56S50,79.65,48.2,79.65Zm0-10.14c-1,0-1.89.9-1.89,4.58s.84,4.57,1.89,4.57,1.89-.9,1.89-4.57S49.25,69.51,48.2,69.51Z"
     id="path22"
     inkscape:export-xdpi="96"
     inkscape:export-ydpi="96" />
  <path
     class="cls-3"
     d="M54.62,68.67l2.79,8h0v-8h1.17V79.5H57.35L54,70.08h0V79.5H52.79V68.67Z"
     id="path24"
     inkscape:export-xdpi="96"
     inkscape:export-ydpi="96" />
  <path
     class="cls-3"
     d="M65.16,68.67v1H62.94V79.5H61.77V69.66H59.55v-1Z"
     id="path26"
     inkscape:export-xdpi="96"
     inkscape:export-ydpi="96" />
  <path
     class="cls-3"
     d="M66.27,68.67h2.61a2.7,2.7,0,0,1,3,2.8,2.6,2.6,0,0,1-1.74,2.66l1.83,5.37H70.71L69,74.37l-1.53.06V79.5H66.27Zm1.17,4.74h1c1.68,0,2.22-.66,2.22-1.87s-.54-1.87-2.22-1.87h-1Z"
     id="path28"
     inkscape:export-xdpi="96"
     inkscape:export-ydpi="96" />
  <path
     class="cls-3"
     d="M76.53,79.65c-1.83,0-3.06-1.53-3.06-5.56s1.23-5.56,3.06-5.56,3.06,1.53,3.06,5.56S78.36,79.65,76.53,79.65ZM76,66h1l1.51,2.07h-1l-1.06-1.53L75.47,68.1h-1Zm.51,3.48c-1,0-1.89.9-1.89,4.58s.84,4.57,1.89,4.57,1.89-.9,1.89-4.57S77.58,69.51,76.53,69.51Z"
     id="path30"
     inkscape:export-xdpi="96"
     inkscape:export-ydpi="96" />
  <path
     class="cls-3"
     d="M82.44,68.67v9.84H86v1H81.27V68.67Z"
     id="path32"
     inkscape:export-xdpi="96"
     inkscape:export-ydpi="96" />
  <path
     class="cls-3"
     d="M92.06,68.67v1H88.28v3.69h2.79v1H88.28v4.17h4v1H87.11V68.67Zm-2.62-.57h-.75L90.15,66h1.17Z"
     id="path34"
     inkscape:export-xdpi="96"
     inkscape:export-ydpi="96" />
  <path
     class="cls-3"
     d="M37.8,84.67h2.55a3,3,0,0,1,0,5.94H39V95.5H37.8ZM39,89.62H40.2c1.17,0,1.86-.63,1.86-2s-.69-2-1.86-2H39Z"
     id="path36"
     inkscape:export-xdpi="96"
     inkscape:export-ydpi="96" />
  <path
     class="cls-3"
     d="M47.49,84.67,49.87,95.5H48.7l-.65-3.21H45.3l-.65,3.21H43.48l2.39-10.83Zm-2,6.63h2.43l-1.2-5.82h0Z"
     id="path38"
     inkscape:export-xdpi="96"
     inkscape:export-ydpi="96" />
  <path
     class="cls-3"
     d="M51,84.67h2.61a2.7,2.7,0,0,1,3,2.8,2.6,2.6,0,0,1-1.74,2.66l1.83,5.37H55.44L53.7,90.37l-1.53.06V95.5H51Zm1.17,4.74h1c1.68,0,2.22-.66,2.22-1.87s-.54-1.87-2.22-1.87h-1Z"
     id="path40"
     inkscape:export-xdpi="96"
     inkscape:export-ydpi="96" />
  <path
     class="cls-3"
     d="M63,84.67v9.84h3.51v1H61.83V84.67Z"
     id="path42"
     inkscape:export-xdpi="96"
     inkscape:export-ydpi="96" />
  <path
     class="cls-3"
     d="M67.81,84.67v1.5l-.9,2.16h-.45l.69-2.25h-.6V84.67Z"
     id="path44"
     inkscape:export-xdpi="96"
     inkscape:export-ydpi="96" />
  <path
     class="cls-3"
     d="M74.83,84.67v1H71.05v3.69h2.79v1H71.05v4.17h4v1H69.88V84.67Zm-2.62-.57h-.75L72.93,82H74.1Z"
     id="path46"
     inkscape:export-xdpi="96"
     inkscape:export-ydpi="96" />
  <path
     class="cls-3"
     d="M81.27,84.67v1H79V95.5H77.88V85.66H75.66v-1Z"
     id="path48"
     inkscape:export-xdpi="96"
     inkscape:export-ydpi="96" />
  <path
     class="cls-3"
     d="M85,84.67,87.36,95.5H86.19l-.65-3.21H82.78l-.65,3.21H81l2.38-10.83Zm-2,6.63h2.43l-1.2-5.82h0Z"
     id="path50"
     inkscape:export-xdpi="96"
     inkscape:export-ydpi="96" />
  <path
     class="cls-3"
     d="M92.65,84.67v1H90.43V95.5H89.26V85.66H87v-1Z"
     id="path52"
     inkscape:export-xdpi="96"
     inkscape:export-ydpi="96" />
  <path
     class="cls-3"
     d="m 55.833773,52.570052 h 2.73 c 2,0 2.88,1 2.88,2.86 a 2.33,2.33 0 0 1 -1.29,2.27 2.48,2.48 0 0 1 1.5,2.56 c 0,1.78 -0.79,3.13 -2.91,3.13 h -2.91 z m 1.86,4.44 h 0.67 a 1.23,1.23 0 0 0 1.2,-1.38 c 0,-1 -0.39,-1.53 -1.22,-1.53 h -0.7 z m 0,4.86 h 0.78 c 1,0 1.35,-0.57 1.35,-1.67 0,-1.1 -0.42,-1.67 -1.53,-1.67 h -0.6 z"
     id="path14-4"
     style="fill:#ffffff"
     inkscape:export-xdpi="96"
     inkscape:export-ydpi="96" />
</svg>
